<?xml version="1.0" encoding="UTF-8"?>
<svg xmlns="http://www.w3.org/2000/svg" width="960" height="960" viewBox="0 0 3840 3840">
<path fill="#ffffff" fill-rule="evenodd" d="M 2559 1585 L 2558 1703 L 2612 1712 L 2611 2558 L 2737 2557 L 2743 1705 L 2871 1710 L 2871 2558 L 2999 2557 L 2998 1706 L 3121 1701 L 3133 1706 L 3132 2557 L 3258 2559 L 3258 1779 L 3218 1657 L 3164 1604 L 3109 1585 Z M 2254 1586 L 2217 1599 L 2173 1636 L 2138 1690 L 2120 1743 L 2116 1779 L 2119 2383 L 2132 2432 L 2151 2474 L 2175 2509 L 2210 2541 L 2254 2559 L 2361 2559 L 2401 2546 L 2444 2513 L 2474 2473 L 2499 2411 L 2506 2355 L 2505 1776 L 2493 1721 L 2474 1678 L 2445 1636 L 2418 1611 L 2386 1592 L 2364 1586 Z M 2250 1705 L 2372 1705 L 2377 1710 L 2377 2439 L 2373 2443 L 2247 2443 L 2242 2437 L 2242 1712 Z M 1786 1585 L 1732 1604 L 1688 1646 L 1658 1697 L 1641 1757 L 1640 2368 L 1652 2423 L 1671 2468 L 1694 2504 L 1725 2535 L 1755 2553 L 1778 2559 L 1885 2559 L 1933 2541 L 1977 2501 L 2007 2452 L 2025 2394 L 2026 1767 L 2013 1715 L 1994 1674 L 1971 1640 L 1940 1610 L 1886 1586 Z M 1772 1705 L 1893 1705 L 1899 1712 L 1899 2438 L 1895 2443 L 1770 2443 L 1767 2440 L 1767 1710 Z M 1163 1585 L 1161 2217 L 1357 2555 L 1547 2216 L 1548 1587 L 1424 1588 L 1425 2176 L 1354 2293 L 1288 2179 L 1288 1586 Z M 939 1585 L 937 2558 L 1062 2560 L 1064 1731 L 1053 1677 L 1022 1624 L 990 1598 Z M 3285 1459 L 3284 1461 L 3284 1538 L 3288 1541 L 3291 1540 L 3292 1538 L 3292 1505 L 3296 1501 L 3308 1501 L 3309 1502 L 3320 1504 L 3330 1515 L 3333 1522 L 3337 1526 L 3339 1531 L 3343 1535 L 3343 1537 L 3346 1540 L 3353 1540 L 3354 1539 L 3354 1537 L 3352 1535 L 3351 1532 L 3346 1527 L 3345 1523 L 3341 1519 L 3339 1514 L 3333 1509 L 3332 1506 L 3329 1503 L 3329 1502 L 3332 1499 L 3338 1498 L 3343 1496 L 3345 1492 L 3348 1489 L 3348 1487 L 3350 1484 L 3350 1474 L 3344 1463 L 3338 1459 L 3332 1459 L 3331 1458 L 3292 1458 L 3291 1459 Z M 3292 1466 L 3295 1463 L 3329 1463 L 3330 1464 L 3332 1464 L 3333 1465 L 3334 1465 L 3341 1472 L 3341 1473 L 3342 1474 L 3342 1476 L 3343 1477 L 3343 1483 L 3342 1484 L 3342 1485 L 3333 1494 L 3332 1494 L 3331 1495 L 3326 1495 L 3325 1496 L 3314 1496 L 3313 1495 L 3295 1495 L 3292 1492 L 3292 1490 L 3291 1489 L 3291 1488 L 3292 1487 Z M 3300 1418 L 3289 1423 L 3282 1424 L 3277 1428 L 3273 1429 L 3263 1437 L 3247 1455 L 3246 1459 L 3242 1464 L 3241 1471 L 3236 1481 L 3236 1487 L 3235 1488 L 3236 1517 L 3241 1528 L 3241 1532 L 3246 1539 L 3248 1545 L 3265 1563 L 3273 1569 L 3278 1570 L 3284 1575 L 3295 1577 L 3298 1579 L 3306 1581 L 3327 1581 L 3342 1576 L 3349 1575 L 3356 1570 L 3361 1569 L 3369 1563 L 3382 1550 L 3393 1532 L 3394 1525 L 3399 1512 L 3399 1486 L 3394 1473 L 3393 1466 L 3388 1460 L 3387 1455 L 3380 1446 L 3362 1430 L 3356 1428 L 3351 1424 L 3344 1423 L 3331 1418 L 3321 1418 L 3320 1417 Z M 3299 1426 L 3308 1426 L 3309 1425 L 3333 1426 L 3337 1427 L 3344 1431 L 3350 1432 L 3367 1444 L 3373 1450 L 3375 1454 L 3379 1458 L 3381 1463 L 3385 1467 L 3387 1476 L 3389 1478 L 3391 1484 L 3391 1498 L 3392 1499 L 3391 1502 L 3391 1514 L 3390 1518 L 3386 1525 L 3385 1531 L 3382 1534 L 3379 1540 L 3358 1561 L 3353 1563 L 3348 1567 L 3342 1568 L 3331 1573 L 3304 1573 L 3303 1572 L 3299 1572 L 3292 1568 L 3286 1567 L 3281 1563 L 3276 1561 L 3272 1557 L 3268 1555 L 3256 1542 L 3254 1537 L 3250 1533 L 3249 1527 L 3244 1518 L 3244 1511 L 3243 1510 L 3244 1480 L 3249 1471 L 3249 1468 L 3251 1464 L 3255 1460 L 3256 1456 L 3261 1450 L 3274 1438 L 3278 1437 L 3282 1433 L 3286 1431 L 3289 1431 Z M 459 1165 L 457 2558 L 700 2559 L 750 2540 L 794 2498 L 825 2449 L 843 2385 L 842 1334 L 831 1289 L 802 1234 L 764 1195 L 725 1173 L 698 1166 Z M 590 1283 L 712 1283 L 720 1291 L 720 2438 L 715 2443 L 592 2444 L 585 2437 L 585 1292 Z"/>
</svg>
